<?xml version="1.0" standalone="no"?>
<!DOCTYPE svg PUBLIC "-//W3C//DTD SVG 20010904//EN"
 "http://www.w3.org/TR/2001/REC-SVG-20010904/DTD/svg10.dtd">
<svg version="1.0" xmlns="http://www.w3.org/2000/svg"
 width="500.000000pt" height="500.000000pt" viewBox="0 0 500.000000 500.000000"
 preserveAspectRatio="xMidYMid meet">
<metadata>
Created by potrace 1.16, written by Peter Selinger 2001-2019
</metadata>
<g transform="translate(0.000000,500.000000) scale(0.100000,-0.100000)"
fill="#000000" stroke="none">
<path d="M2385 4980 c-27 -10 -139 -57 -248 -104 -109 -47 -204 -86 -212 -86
-8 0 -31 -9 -52 -19 -21 -11 -110 -50 -197 -86 -88 -37 -184 -78 -214 -92
-119 -54 -430 -186 -482 -205 -118 -41 -528 -219 -564 -243 -58 -41 -74 -132
-33 -192 14 -21 44 -44 82 -62 167 -80 257 -121 325 -151 41 -18 147 -66 235
-108 88 -41 186 -83 217 -94 32 -10 133 -54 225 -97 93 -43 202 -93 243 -111
41 -18 98 -44 125 -57 96 -47 316 -143 327 -143 7 0 75 -30 152 -66 183 -87
187 -87 373 0 78 36 147 66 153 66 12 0 257 107 275 120 6 4 87 41 180 83 94
41 222 100 286 130 63 30 142 64 175 75 32 11 100 39 149 62 50 23 158 73 240
110 83 37 191 87 240 110 50 23 118 55 152 71 74 35 103 75 103 140 0 46 -22
89 -56 114 -36 24 -446 202 -564 243 -49 18 -388 161 -465 198 -88 41 -454
196 -480 203 -35 10 -248 98 -350 146 -151 70 -243 82 -340 45z m-827 -739
c117 -30 186 -80 217 -155 21 -50 12 -88 -33 -138 -144 -159 -502 -157 -648 4
-44 49 -47 106 -8 164 32 46 44 57 107 90 103 54 242 67 365 35z m1068 4 c131
-31 234 -121 234 -205 0 -38 -13 -64 -52 -102 -77 -75 -170 -108 -308 -108
-141 0 -239 36 -317 117 -77 78 -49 171 74 250 93 59 241 78 369 48z m1129
-15 c121 -42 185 -109 185 -192 0 -41 -5 -54 -36 -88 -43 -47 -133 -94 -212
-111 -82 -17 -233 -7 -303 20 -67 26 -146 92 -166 138 -41 100 73 215 252 253
65 14 213 4 280 -20z"/>
<path d="M205 3713 c-59 -63 -55 32 -53 -1380 l3 -1298 24 -49 c42 -84 72
-109 198 -166 65 -29 173 -79 240 -111 67 -32 148 -67 180 -78 57 -19 140 -54
218 -93 22 -11 123 -57 225 -103 102 -46 254 -115 338 -154 85 -39 160 -71
168 -71 8 0 56 -20 107 -44 235 -112 368 -166 410 -166 48 0 90 24 118 66 18
28 19 73 19 1363 0 1318 0 1334 -20 1366 -23 37 -88 73 -295 165 -77 34 -186
84 -242 111 -57 27 -115 52 -130 55 -16 4 -86 34 -158 66 -71 33 -215 98 -320
145 -104 47 -194 89 -200 93 -18 13 -199 91 -256 111 -32 10 -113 45 -180 78
-222 105 -264 121 -318 121 -42 0 -55 -5 -76 -27z m1083 -1408 c52 -22 79 -51
114 -119 92 -182 68 -431 -52 -540 -95 -86 -210 -38 -284 119 -23 48 -29 75
-33 169 -3 61 -1 142 5 180 25 157 133 239 250 191z"/>
<path d="M4580 3701 c-47 -21 -144 -66 -217 -99 -72 -34 -137 -62 -143 -62
-13 0 -239 -98 -255 -110 -5 -5 -91 -44 -190 -88 -99 -44 -233 -105 -298 -136
-66 -31 -144 -65 -175 -75 -32 -10 -102 -40 -157 -66 -55 -26 -161 -74 -235
-107 -184 -82 -261 -124 -285 -156 -20 -27 -20 -45 -23 -1360 -3 -1479 -7
-1379 63 -1422 67 -42 117 -27 477 144 54 25 104 46 112 46 8 0 83 32 168 71
84 39 236 108 338 154 102 46 208 95 235 108 81 39 192 87 204 87 6 0 77 31
159 68 81 38 200 93 265 122 126 57 156 82 198 166 l24 49 3 1298 c2 1412 6
1317 -53 1380 -39 41 -105 38 -215 -12z m-357 -725 c50 -21 105 -91 127 -164
28 -88 28 -246 0 -333 -29 -93 -81 -166 -137 -190 -51 -22 -77 -24 -124 -8
-78 27 -122 102 -138 239 -20 170 18 325 101 409 57 58 110 73 171 47z m-819
-1446 c82 -50 126 -142 134 -278 8 -137 -30 -263 -105 -352 -37 -44 -105 -74
-150 -65 -48 9 -115 74 -144 138 -21 47 -23 66 -23 197 0 112 4 157 17 197 19
55 82 134 132 164 39 24 99 24 139 -1z"/>
</g>
</svg>
